<svg id="angular-3" xmlns="http://www.w3.org/2000/svg" width="512" height="138.6" viewBox="0 0 512 138.6">
  <g id="Group_1" data-name="Group 1">
    <path id="Path_1" data-name="Path 1" d="M150.6,102.8v-63h8.1l38.5,50.7V39.8h7.7v63h-8.1L158.3,51.6v51.2Zm117-2.5a46.756,46.756,0,0,1-16.4,2.9q-34.2,0-34.2-32.8,0-31.05,33-31.1a58.484,58.484,0,0,1,17.6,2.6v7a45.769,45.769,0,0,0-16.7-3.1c-17.2,0-25.8,8.2-25.8,24.4,0,17.5,8.5,26.2,25.4,26.2a44.032,44.032,0,0,0,9-1.1V74.2h8.1v26.1Zm13-21.8V39.8h8.1V78.5c0,12.1,6,18.2,18.1,18.2,12,0,18.1-6.1,18.1-18.2V39.8H333V78.5c0,16.5-8.7,24.8-26.2,24.8S280.6,95,280.6,78.5Zm75-38.7V96.2h33v6.6H347.5v-63h8.1Zm44.7,63h-8.5l31.3-71.3,31.3,71.3h-9L437.3,83H416.5l2.2-6.6h15.9L422.8,47.9l-22.5,54.9Zm62.8,0v-63H490c12,0,18,5,18,15.1,0,8.2-5.9,14.3-17.6,18.2L512,102.8H501.3l-20-28.3V69.2c12-1.9,18.1-6.5,18.1-13.9,0-5.8-3.3-8.7-10-8.7h-18v56.2h-8.3Z" fill="#fff" fill-rule="evenodd"/>
  </g>
  <path id="Path_2" data-name="Path 2" d="M0,23,64.5,0l66.2,22.6L120,107.9,64.5,138.6,9.9,108.3Z" fill="#e23237" fill-rule="evenodd"/>
  <path id="Path_3" data-name="Path 3" d="M130.7,22.6,64.5,0V138.6L120,107.9l10.7-85.3Z" fill="#b52e31" fill-rule="evenodd"/>
  <path id="Path_4" data-name="Path 4" d="M64.6,16.2,24.4,105.6l15-.3,8.1-20.2H83.4l8.8,20.4,14.3.3L64.6,16.2Zm.1,28.7L78.3,73.3H52.8Z" fill="#fff" fill-rule="evenodd"/>
</svg>
