<svg xmlns="http://www.w3.org/2000/svg" viewBox="0 0 548.6405 112.7737"><title>Asset 1</title><g id="Layer_2" data-name="Layer 2"><g id="Vrstva_1" data-name="Vrstva 1"><path d="M38.9964,5.0886C38.3851,3.112,48.1986.5373,58.9554.0627c10.8364-.4751,23.6528,1.6806,26.0513,8.83C88.92,20.61,69.0809,37.6945,51.7864,46.09c-4.2456,2.0533-6.81,2.6177-7.8867,2.4751a1.1356,1.1356,0,0,1-.8437-1.7412c.6113-1.2324,3.4082-3.74,7.1357-6.4712C69.659,26.134,75.9842,15.7028,72.31,11.48,69.9515,8.77,60.0848,6.8859,49.84,6.8859c-2.7837,0-10.0923.6079-10.8433-1.7973M60.8289,58.6271C54.69,54.4147,43.7469,53.01,34.744,53.4777c-8.0259.4219-21.8125,2.9732-21.3008,5.5117.4917,2.7432,9.2222,1.8936,13.2217,1.8936,8.7968,0,22.7563.5312,24.9555,6.2051C56.3641,79.3,24.2069,101.2258,17.35,99.1125c-3.103-.9434,6.2989-16.8828,9.7071-22.6162,2.0332-3.4151,5.1162-8.7969,2.4848-9.1553-2.9433-.4121-6.1924,4.65-8.2983,7.5674A221.2226,221.2226,0,0,0,4.9588,100.382C3.51,103.1262-1.3132,111.3908.3411,112.467c1.5479.99,8.9029-.4248,18.2578-4.1319,29.4-11.6406,42.6421-26.8154,46.19-39.3466a9.365,9.365,0,0,0-3.96-10.3614m44.1167-19.9526C95.3719,37.1,78.263,36.4953,72.41,45.4616c-4.5176,6.9263,4.0264,16.4175,11.8,25.6128,6.2319,7.3623,13.0156,14.3916,10.2451,18.5039-2.2593,3.3555-16.7563,3.3555-21.7529,3.6211-6.06.3193-14.7964.332-16.3179,1.17-1.3687.7305-2.1328,3.0156,2.9966,3.9326A145.9318,145.9318,0,0,0,83.678,100.548c10.81,0,22.1646-1.78,24.63-10.1523,1.98-6.7168-4.8769-13.9258-10.9228-21.2275-6.5977-8.0069-13.2886-13.7037-12.7237-19.3711.4253-4.4087,9.0757-4.6612,23.4136-4.9136,2.9834-.0532,8.93-.1958,7.78-2.5513-1.023-2.08-5.4678-2.7671-10.91-3.6577m117.023,39.1772c-2.106,12.7832-10.7569,23.4932-26.8487,23.4932-16.1054,0-21.2412-10.71-19.1352-23.4932,2.0928-12.7832,10.7568-23.4838,26.8486-23.4838s21.2349,10.7006,19.1353,23.4838M201.5643,62.0851c-9.1353,0-13.9258,5.3086-15.64,15.7666-1.7138,10.4707,1.3223,15.7666,10.4649,15.7666,9.1352,0,13.9189-5.2959,15.6333-15.7666,1.7207-10.458-1.3223-15.7666-10.458-15.7666m77.896-7.7236h-8.4248L262.81,99.4055h10.0127l7.9463-43.5127a1.3045,1.3045,0,0,0-1.3086-1.5313M255.6077,92.0969H236.4661L243.077,55.9a1.3156,1.3156,0,0,0-1.3091-1.5317h-8.4248L225.118,99.4055H256.83l.8169-4.4922c.3657-2.02-.312-2.8164-2.04-2.8164m57.5645-37.7354h-24.251l-.1191.7275c-.5655,3.0567-.3125,6.6045,4.5244,6.6045h17.959c7.1093,0,9.833,5.1426,8.0654,14.7891-1.6074,8.8506-6.3779,15.6006-13.62,15.6006h-9.7334l4.6172-25.3272h-8.2783a2.0155,2.0155,0,0,0-2.0127,1.5284l-5.6807,31.1211h18.9883c14.0195,0,23.8-6.5977,26.8291-23.2413,2.3388-12.7968-2.99-21.8027-17.2881-21.8027M138.89,64.1779a10.7658,10.7658,0,0,0,4.5914,10.711L157.88,84.9348c1.5078,1.0429,2.2588,1.7666,2.0728,2.9824-.2725,1.6816-1.1495,2.3593-4.1329,2.3593H139.07c-1.7876,0-2.7573.877-3.083,2.8965v6.2452H155.6c8.5977,0,12.85-5.0762,13.707-10.4581.8038-5.0752-.8969-8.69-4.166-11.0283L149.8333,67.0754c-1.229-.878-1.5346-1.3428-1.4482-2.0069.14-1.1035,1.1426-1.5546,2.89-1.5546h17.48c2.14,0,3.3555-2.1866,3.6943-4.3487V54.3679H149.3353c-5.1294,0-9.6143,4.5883-10.4449,9.81M471.98,58.6769c2.0068,2.2784,2.1523,6.5108,1.5811,9.1153-.69,3.1826-3.7207,11.2158-15.0684,12.2324l9.56,16.3769a4.0532,4.0532,0,0,1,.6514,1.6221,1.4992,1.4992,0,0,1-.5713,1.2285,1.9239,1.9239,0,0,1-1.2226.3594h-2.5254L453.1771,80.29l-9.0293-.04L440.64,99.6115h-4.9571l8.378-45.0508h11.5742c6.8369,0,12.8369.1,16.3447,4.1162m-4.5508,2.7237c-.9043-.88-2.2861-1.3018-4.4258-1.7041a22.0976,22.0976,0,0,0-2.5175-.2393c-2.5782-.1426-10.2393-.0264-12.584-.0068l-2.97,16.3818c1.7666.0264,3.7871.0527,5.2089.0664,4.0059,0,7.8858-.1328,10.6241-.8769,7.0556-1.9141,10.5566-9.9131,6.664-13.6211m46.542-6.4112a2.01,2.01,0,0,0-1.2363-.3491h-2.1992L487.3538,74.4631l3.083-17.5171a1.8515,1.8515,0,0,0-.6709-1.91,2.37,2.37,0,0,0-1.415-.4751h-2.2324l-8.3721,45.0371h4.957l3.668-19.9326L504.722,99.6115h2.1992a2.0045,2.0045,0,0,0,1.2295-.3594,1.483,1.483,0,0,0,.5713-1.2285,3.0749,3.0749,0,0,0-.6582-1.6221L490.6966,77.5324,513.8841,57.84a2.2209,2.2209,0,0,0,.6514-1.6284,1.539,1.539,0,0,0-.5645-1.2222M431.9554,79.6525c-3.043,12.8028-12.2647,22.9024-27.001,21.7725v-.0137c-13.7-1.581-17.6269-13.6338-14.7373-25.1943,3.1963-12.7832,12.3848-22.8887,26.9024-21.7656v.0131c13.5273,1.5777,17.5673,13.647,14.8359,25.188M415.9769,59.0754c-8.2588-.4551-17.7,4.4121-20.9492,17.54-3.1954,12.877,2.7773,19.1221,10.8769,20.1719l.8438.04c8.3515.4385,17.248-4.4384,20.3769-17.5674,3.05-12.8759-2.9365-19.3476-11.1484-20.1845m132.6562-4.5147h-18.584c-8.6836.02-9.6,7.1455-9.6406,10.5078,0,3.5411,2.5713,6.3516,3.8467,7.501l12.6572,12.3916a6.8854,6.8854,0,0,1,2.2324,4.8369c0,2.75-2.1,4.9893-5.4882,4.9766-.0059.0195-16.377.0332-16.53.0723a1.5368,1.5368,0,0,0-1.09,1.3623h-.0459l.0459.02v3.3818h18.3975c8.6914-.0332,9.6074-7.1494,9.6475-10.5117,0-.0127-.0069-.0127-.0069-.0264.0069-4.6572-4.2715-8.2519-4.3047-8.2646l-11.999-11.8135c-1.5019-1.4756-2.4258-2.9971-2.4326-4.625.0068-2.7568,2.1064-4.9863,5.4756-4.9863.0195-.0059,16.59-.02,16.7226-.0625l.0469.123-.04-.123a1.5563,1.5563,0,0,0,1.0967-1.3653.0125.0125,0,0,1,0-.0166c0-.0273-.0069-2.7412-.0069-3.3789m-158.39,1.7871a1.8108,1.8108,0,0,0-.6045-1.3886,1.9846,1.9846,0,0,0-1.3086-.3985h-2.2656L368.5775,94.1828,364.02,72.9553a3.3862,3.3862,0,0,0-3.5283-3.0371h-2.9433l-13.8,24.039.1328-37.4932a1.8532,1.8532,0,0,0-.6241-1.4614,2.0782,2.0782,0,0,0-1.3955-.4419h-2.95V99.5978h3.7608V99.591c.02,0,.0527.0068.08.0068a4.7314,4.7314,0,0,0,2.916-.8574,7.6368,7.6368,0,0,0,1.9472-2.166l12.085-21.5527,5.0371,24.5761h3.2217a5.0591,5.0591,0,0,0,4.6777-3.2353l17.3741-39.0742a2.5215,2.5215,0,0,0,.2324-.9405" style="fill:#ee3124"/></g></g></svg>